<?xml version="1.0" encoding="utf-8"?>
<!-- Generator: Adobe Illustrator 16.0.4, SVG Export Plug-In . SVG Version: 6.00 Build 0)  -->
<!DOCTYPE svg PUBLIC "-//W3C//DTD SVG 1.1//EN" "http://www.w3.org/Graphics/SVG/1.1/DTD/svg11.dtd">
<svg version="1.1" id="logo" xmlns="http://www.w3.org/2000/svg" xmlns:xlink="http://www.w3.org/1999/xlink" x="0px" y="0px"
	 width="240px" height="50.001px" viewBox="0 0 240 50.001" enable-background="new 0 0 240 50.001" xml:space="preserve">
<g id="typo_2_">
	<path fill="#555555" d="M98.254,8.751l12.276,31.416h-4.62l-3.432-9.46H89.19l-3.52,9.46h-4.268L93.634,8.751H98.254z
		 M101.159,27.187l-5.236-14.652h-0.088l-5.324,14.652H101.159z"/>
	<path fill="#555555" d="M118.451,40.167l-8.448-22.748h4.18l6.38,18.964h0.088l6.204-18.964h3.916l-8.316,22.748H118.451z"/>
	<path fill="#555555" d="M150.307,38.715c-1.701,1.291-3.843,1.937-6.424,1.937c-1.819,0-3.396-0.294-4.73-0.881
		c-1.335-0.586-2.457-1.407-3.365-2.464c-0.91-1.056-1.592-2.316-2.047-3.783s-0.711-3.065-0.77-4.797
		c0-1.73,0.264-3.314,0.792-4.751c0.528-1.437,1.269-2.684,2.222-3.74c0.953-1.056,2.083-1.877,3.389-2.464
		c1.305-0.586,2.734-0.88,4.29-0.88c2.023,0,3.702,0.418,5.038,1.254c1.334,0.836,2.404,1.899,3.212,3.19
		c0.806,1.291,1.363,2.699,1.672,4.224c0.308,1.525,0.433,2.978,0.374,4.356h-17.028c-0.029,0.997,0.088,1.943,0.353,2.838
		c0.264,0.896,0.688,1.688,1.275,2.376c0.587,0.689,1.335,1.239,2.244,1.65s1.98,0.615,3.212,0.615c1.584,0,2.882-0.366,3.895-1.1
		c1.012-0.732,1.679-1.848,2.002-3.344h3.695C153.107,35.503,152.008,37.425,150.307,38.715z M149.404,24.107
		c-0.337-0.792-0.792-1.474-1.363-2.046c-0.572-0.572-1.247-1.026-2.024-1.364c-0.777-0.336-1.636-0.506-2.574-0.506
		c-0.968,0-1.841,0.169-2.617,0.506c-0.778,0.338-1.445,0.8-2.003,1.386c-0.557,0.587-0.997,1.269-1.319,2.046
		c-0.323,0.778-0.514,1.606-0.572,2.486h13.068C149.939,25.735,149.741,24.899,149.404,24.107z"/>
	<path fill="#555555" d="M161.35,17.419v3.608h0.088c1.555-2.757,4.019-4.136,7.393-4.136c1.495,0,2.742,0.206,3.739,0.616
		c0.997,0.411,1.805,0.983,2.42,1.716c0.616,0.733,1.049,1.606,1.299,2.618c0.248,1.012,0.374,2.134,0.374,3.366v14.96h-3.74v-15.4
		c0-1.408-0.411-2.522-1.232-3.344c-0.821-0.821-1.951-1.232-3.388-1.232c-1.145,0-2.134,0.176-2.97,0.528
		c-0.836,0.352-1.533,0.852-2.091,1.496c-0.557,0.646-0.976,1.401-1.254,2.266c-0.278,0.866-0.418,1.812-0.418,2.838v12.848h-3.739
		V17.419H161.35z"/>
	<path fill="#555555" d="M197.606,40.167v-3.608h-0.088c-0.792,1.408-1.804,2.442-3.036,3.103c-1.231,0.66-2.684,0.99-4.355,0.99
		c-1.496,0-2.743-0.198-3.74-0.595c-0.998-0.396-1.805-0.96-2.42-1.693c-0.616-0.733-1.05-1.606-1.298-2.618
		c-0.25-1.012-0.374-2.134-0.374-3.366v-14.96h3.739v15.399c0,1.408,0.411,2.523,1.232,3.345c0.82,0.821,1.95,1.231,3.388,1.231
		c1.145,0,2.134-0.176,2.971-0.527c0.836-0.353,1.532-0.851,2.09-1.496c0.557-0.645,0.975-1.4,1.254-2.266
		c0.278-0.865,0.418-1.812,0.418-2.838V17.419h3.74v22.748H197.606z"/>
	<path fill="#555555" d="M222.862,38.715c-1.701,1.291-3.843,1.937-6.424,1.937c-1.819,0-3.396-0.294-4.73-0.881
		c-1.335-0.586-2.457-1.407-3.365-2.464c-0.91-1.056-1.592-2.316-2.047-3.783s-0.711-3.065-0.77-4.797
		c0-1.73,0.264-3.314,0.792-4.751c0.528-1.437,1.269-2.684,2.222-3.74c0.953-1.056,2.083-1.877,3.389-2.464
		c1.305-0.586,2.734-0.88,4.29-0.88c2.023,0,3.702,0.418,5.038,1.254c1.334,0.836,2.404,1.899,3.212,3.19
		c0.806,1.291,1.363,2.699,1.672,4.224c0.308,1.525,0.433,2.978,0.374,4.356h-17.028c-0.029,0.997,0.088,1.943,0.353,2.838
		c0.264,0.896,0.688,1.688,1.275,2.376c0.587,0.689,1.335,1.239,2.244,1.65s1.98,0.615,3.212,0.615c1.584,0,2.882-0.366,3.895-1.1
		c1.012-0.732,1.679-1.848,2.002-3.344h3.695C225.663,35.503,224.563,37.425,222.862,38.715z M221.96,24.107
		c-0.337-0.792-0.792-1.474-1.363-2.046c-0.572-0.572-1.247-1.026-2.024-1.364c-0.777-0.336-1.636-0.506-2.574-0.506
		c-0.968,0-1.841,0.169-2.617,0.506c-0.778,0.338-1.445,0.8-2.003,1.386c-0.557,0.587-0.997,1.269-1.319,2.046
		c-0.323,0.778-0.514,1.606-0.572,2.486h13.068C222.495,25.735,222.297,24.899,221.96,24.107z"/>
</g>
<g id="dots">
	<circle opacity="0.2" fill="#E4613E" cx="6.5" cy="7.5" r="3.5"/>
	<circle opacity="0.4" fill="#E4613E" cx="17.5" cy="7.5" r="3.5"/>
	<circle fill="#E4613E" cx="29.5" cy="7.5" r="3.5"/>
	<circle opacity="0.2" fill="#E4613E" cx="17.5" cy="18.5" r="3.5"/>
	<circle opacity="0.4" fill="#E4613E" cx="29.5" cy="18.5" r="3.5"/>
	<circle opacity="0.6" fill="#E4613E" cx="40.5" cy="18.5" r="3.5"/>
	<circle fill="#E4613E" cx="51.5" cy="18.5" r="3.5"/>
	<circle opacity="0.2" fill="#E4613E" cx="29.5" cy="30.5" r="3.5"/>
	<circle opacity="0.4" fill="#E4613E" cx="40.5" cy="30.5" r="3.5"/>
	<circle opacity="0.6" fill="#E4613E" cx="51.5" cy="30.5" r="3.5"/>
	<circle fill="#E4613E" cx="62.5" cy="30.5" r="3.5"/>
	<circle opacity="0.2" fill="#E4613E" cx="29.5" cy="41.5" r="3.5"/>
	<circle opacity="0.4" fill="#E4613E" cx="40.5" cy="41.5" r="3.5"/>
</g>
</svg>
