<?xml version="1.0" encoding="utf-8"?>
<!-- Generator: Adobe Illustrator 16.0.4, SVG Export Plug-In . SVG Version: 6.00 Build 0)  -->
<!DOCTYPE svg PUBLIC "-//W3C//DTD SVG 1.1//EN" "http://www.w3.org/Graphics/SVG/1.1/DTD/svg11.dtd">
<svg version="1.1" id="logo_small" xmlns="http://www.w3.org/2000/svg" xmlns:xlink="http://www.w3.org/1999/xlink" x="0px" y="0px"
	 width="90.001px" height="30px" viewBox="0 0 90.001 30" enable-background="new 0 0 90.001 30" xml:space="preserve">
<g id="typo">
	<path fill="#FFFFFF" d="M14.192,6.432l6.696,17.137h-2.52l-1.872-5.161H9.248l-1.92,5.161H5l6.672-17.137H14.192z M15.776,16.488
		L12.92,8.496h-0.048l-2.904,7.992H15.776z"/>
	<path fill="#FFFFFF" d="M25.208,23.568L20.6,11.16h2.28l3.48,10.344h0.048l3.384-10.344h2.136l-4.536,12.409H25.208z"/>
	<path fill="#FFFFFF" d="M42.584,22.775c-0.929,0.705-2.097,1.057-3.505,1.057c-0.992,0-1.852-0.16-2.58-0.48
		s-1.34-0.768-1.836-1.344c-0.496-0.576-0.868-1.264-1.116-2.064c-0.249-0.8-0.388-1.672-0.42-2.616
		c0-0.944,0.144-1.808,0.432-2.592c0.288-0.784,0.692-1.464,1.212-2.04s1.136-1.023,1.848-1.344c0.712-0.32,1.492-0.48,2.34-0.48
		c1.104,0,2.02,0.228,2.748,0.684c0.728,0.456,1.312,1.036,1.752,1.74C43.9,14,44.205,14.768,44.373,15.6s0.235,1.624,0.203,2.376
		h-9.288c-0.016,0.544,0.048,1.06,0.192,1.548s0.376,0.92,0.696,1.296c0.32,0.375,0.728,0.676,1.224,0.901
		c0.496,0.223,1.08,0.336,1.751,0.336c0.864,0,1.572-0.201,2.124-0.602c0.553-0.398,0.916-1.007,1.092-1.823h2.017
		C44.112,21.023,43.512,22.072,42.584,22.775z M42.092,14.808c-0.185-0.432-0.432-0.804-0.744-1.116
		c-0.312-0.312-0.681-0.56-1.104-0.744c-0.425-0.184-0.893-0.276-1.404-0.276c-0.528,0-1.004,0.092-1.428,0.276
		c-0.424,0.184-0.788,0.436-1.092,0.756c-0.304,0.32-0.544,0.692-0.72,1.116c-0.176,0.424-0.28,0.876-0.312,1.356h7.128
		C42.384,15.696,42.276,15.24,42.092,14.808z"/>
	<path fill="#FFFFFF" d="M48.608,11.16v1.968h0.048c0.848-1.504,2.192-2.256,4.032-2.256c0.815,0,1.496,0.112,2.04,0.336
		s0.983,0.536,1.32,0.936c0.336,0.4,0.571,0.876,0.707,1.428c0.137,0.552,0.204,1.164,0.204,1.836v8.161h-2.04v-8.4
		c0-0.768-0.224-1.376-0.672-1.824c-0.448-0.448-1.063-0.672-1.848-0.672c-0.624,0-1.164,0.096-1.62,0.288s-0.836,0.464-1.14,0.816
		c-0.305,0.352-0.532,0.764-0.685,1.236c-0.152,0.472-0.228,0.988-0.228,1.548v7.008h-2.04V11.16H48.608z"/>
	<path fill="#FFFFFF" d="M68.383,23.568V21.6h-0.047c-0.432,0.768-0.984,1.332-1.656,1.691c-0.672,0.361-1.465,0.541-2.377,0.541
		c-0.814,0-1.496-0.107-2.039-0.324c-0.545-0.217-0.984-0.523-1.32-0.924c-0.336-0.4-0.572-0.877-0.708-1.428
		c-0.137-0.552-0.204-1.165-0.204-1.836v-8.16h2.041v8.4c0,0.768,0.223,1.376,0.672,1.825c0.447,0.447,1.062,0.672,1.848,0.672
		c0.623,0,1.164-0.098,1.619-0.289c0.457-0.191,0.836-0.463,1.141-0.816c0.305-0.352,0.531-0.764,0.684-1.235
		c0.152-0.473,0.229-0.988,0.229-1.548V11.16h2.039v12.409H68.383z"/>
	<path fill="#FFFFFF" d="M82.16,22.775c-0.93,0.705-2.098,1.057-3.504,1.057c-0.992,0-1.854-0.16-2.58-0.48
		c-0.729-0.32-1.342-0.768-1.836-1.344c-0.496-0.576-0.869-1.264-1.117-2.064s-0.389-1.672-0.42-2.616
		c0-0.944,0.145-1.808,0.432-2.592c0.289-0.784,0.693-1.464,1.213-2.04s1.135-1.023,1.848-1.344c0.711-0.32,1.492-0.48,2.34-0.48
		c1.104,0,2.02,0.228,2.748,0.684c0.729,0.456,1.312,1.036,1.752,1.74s0.744,1.472,0.912,2.304s0.236,1.624,0.203,2.376h-9.287
		c-0.016,0.544,0.049,1.06,0.191,1.548c0.145,0.488,0.377,0.92,0.697,1.296c0.318,0.375,0.727,0.676,1.223,0.901
		c0.496,0.223,1.08,0.336,1.752,0.336c0.865,0,1.572-0.201,2.125-0.602c0.553-0.398,0.916-1.007,1.092-1.823h2.016
		C83.688,21.023,83.088,22.072,82.16,22.775z M81.668,14.808c-0.186-0.432-0.432-0.804-0.744-1.116s-0.682-0.56-1.104-0.744
		c-0.426-0.184-0.893-0.276-1.404-0.276c-0.529,0-1.006,0.092-1.428,0.276c-0.426,0.184-0.789,0.436-1.094,0.756
		c-0.303,0.32-0.543,0.692-0.719,1.116c-0.176,0.424-0.281,0.876-0.312,1.356h7.129C81.959,15.696,81.852,15.24,81.668,14.808z"/>
</g>
</svg>
