<?xml version="1.0" encoding="utf-8"?>
<!-- Generator: Adobe Illustrator 16.0.4, SVG Export Plug-In . SVG Version: 6.00 Build 0)  -->
<!DOCTYPE svg PUBLIC "-//W3C//DTD SVG 1.1//EN" "http://www.w3.org/Graphics/SVG/1.1/DTD/svg11.dtd">
<svg version="1.1" id="icon_wordpress" xmlns="http://www.w3.org/2000/svg" xmlns:xlink="http://www.w3.org/1999/xlink" x="0px"
	 y="0px" width="24px" height="24px" viewBox="0 0 24 24" enable-background="new 0 0 24 24" xml:space="preserve">
<g opacity="0.6">
	<g>
		<path fill="#FFFFFF" d="M1.345,11.973c0,3.212,1.868,5.99,4.578,7.306L2.048,8.668C1.596,9.677,1.345,10.796,1.345,11.973z"/>
		<path fill="#FFFFFF" d="M14.945,11.563c0-1.006-0.357-1.699-0.668-2.241c-0.412-0.669-0.797-1.235-0.797-1.904
			c0-0.746,0.563-1.441,1.36-1.441c0.036,0,0.07,0.005,0.106,0.007c-1.447-1.323-3.37-2.132-5.485-2.132
			c-2.835,0-5.331,1.456-6.785,3.661c0.19,0.005,0.371,0.01,0.522,0.01c0.85,0,2.164-0.104,2.164-0.104
			c0.44-0.026,0.493,0.616,0.055,0.667c0,0-0.44,0.053-0.929,0.079l2.958,8.795l1.776-5.329L7.959,8.165
			c-0.436-0.026-0.85-0.077-0.85-0.077C6.671,8.062,6.722,7.393,7.16,7.419c0,0,1.34,0.104,2.14,0.104
			c0.847,0,2.164-0.104,2.164-0.104c0.438-0.026,0.488,0.616,0.053,0.669c0,0-0.44,0.051-0.932,0.077l2.935,8.729l0.812-2.709
			C14.68,13.062,14.945,12.259,14.945,11.563z"/>
		<path fill="#FFFFFF" d="M9.608,12.684l-2.436,7.077c0.727,0.218,1.497,0.332,2.293,0.332c0.946,0,1.854-0.163,2.695-0.459
			c-0.021-0.036-0.041-0.071-0.058-0.112L9.608,12.684z"/>
		<path fill="#FFFFFF" d="M16.592,8.076c0.034,0.26,0.055,0.537,0.055,0.835c0,0.823-0.151,1.75-0.617,2.908l-2.479,7.172
			c2.414-1.408,4.038-4.024,4.038-7.019C17.586,10.56,17.227,9.234,16.592,8.076z"/>
		<path fill="#FFFFFF" d="M9.466,2.507C4.246,2.507,0,6.752,0,11.973c0,5.22,4.246,9.466,9.466,9.466
			c5.218,0,9.466-4.246,9.466-9.466C18.932,6.752,14.684,2.507,9.466,2.507z M9.466,21.005c-4.979,0-9.033-4.053-9.033-9.032
			c0-4.982,4.053-9.033,9.033-9.033c4.979,0,9.03,4.051,9.03,9.033C18.496,16.952,14.445,21.005,9.466,21.005z"/>
	</g>
</g>
</svg>
